<?xml version="1.0" encoding="UTF-8"?>
<!DOCTYPE svg PUBLIC "-//W3C//DTD SVG 1.1//EN" "http://www.w3.org/Graphics/SVG/1.1/DTD/svg11.dtd">
<!-- Creator: CorelDRAW -->
<svg xmlns="http://www.w3.org/2000/svg" xml:space="preserve" width="32px" height="32px" version="1.1" style="shape-rendering:geometricPrecision; text-rendering:geometricPrecision; image-rendering:optimizeQuality; fill-rule:evenodd; clip-rule:evenodd"
viewBox="0 0 32 32"
 xmlns:xlink="http://www.w3.org/1999/xlink"
 xmlns:xodm="http://www.corel.com/coreldraw/odm/2003">
 <defs>
  <style type="text/css">
   <![CDATA[
    .fil0 {fill:#2D355E}
   ]]>
  </style>
 </defs>
 <g id="Camada_x0020_1">
  <metadata id="CorelCorpID_0Corel-Layer"/>
  <path class="fil0" d="M5.6 0l20.8 0c3.08,0 5.6,2.58 5.6,5.74l0 20.52c0,3.16 -2.52,5.74 -5.6,5.74l-20.8 0c-3.08,0 -5.6,-2.58 -5.6,-5.74l0 -20.52c0,-3.16 2.52,-5.74 5.6,-5.74zm13.16 11.3l5.78 0 0 -1.35 -5.78 0 0 1.35zm1.53 3.77c0.36,-0.37 0.87,-0.56 1.53,-0.56 0.61,0 1.11,0.18 1.52,0.53 0.41,0.35 0.64,0.87 0.69,1.55l-4.43 0c0.09,-0.64 0.32,-1.15 0.69,-1.52zm-1.84 6.53c1,0.81 2.15,1.21 3.46,1.21 1.59,0 2.82,-0.48 3.7,-1.43 0.56,-0.61 0.88,-1.2 0.95,-1.78l-2.62 0c-0.16,0.29 -0.33,0.51 -0.53,0.68 -0.37,0.3 -0.84,0.45 -1.43,0.45 -0.55,0 -1.02,-0.13 -1.41,-0.37 -0.65,-0.4 -0.99,-1.09 -1.03,-2.08l7.15 0c0.01,-0.84 -0.01,-1.49 -0.08,-1.95 -0.12,-0.77 -0.38,-1.44 -0.78,-2.03 -0.45,-0.66 -1.02,-1.14 -1.7,-1.45 -0.69,-0.31 -1.46,-0.46 -2.31,-0.46 -1.44,0 -2.61,0.46 -3.52,1.36 -0.9,0.91 -1.35,2.22 -1.35,3.92 0,1.81 0.5,3.12 1.5,3.93zm-10.49 -1.43l0 -3.54 3.26 0c0.58,0 1.02,0.08 1.33,0.22 0.57,0.26 0.85,0.73 0.85,1.42 0,0.82 -0.29,1.38 -0.87,1.66 -0.33,0.16 -0.78,0.24 -1.35,0.24l-3.22 0zm0 -8.67l2.89 0c0.63,0 1.15,0.07 1.57,0.21 0.47,0.19 0.71,0.6 0.71,1.22 0,0.56 -0.18,0.95 -0.54,1.17 -0.36,0.22 -0.83,0.33 -1.41,0.33l-3.22 0 0 -2.93zm5.21 10.8c0.57,-0.13 1.07,-0.35 1.5,-0.67 0.38,-0.28 0.69,-0.63 0.94,-1.05 0.39,-0.62 0.59,-1.33 0.59,-2.12 0,-0.76 -0.17,-1.41 -0.52,-1.94 -0.34,-0.54 -0.85,-0.93 -1.53,-1.17 0.45,-0.23 0.78,-0.48 1.01,-0.76 0.41,-0.49 0.62,-1.15 0.62,-1.96 0,-0.78 -0.21,-1.46 -0.61,-2.02 -0.68,-0.92 -1.83,-1.39 -3.44,-1.42l-6.43 0 0 13.28 5.99 0c0.68,0 1.3,-0.05 1.88,-0.17z"/>
 </g>
</svg>
