<?xml version="1.0" encoding="UTF-8"?>
<!DOCTYPE svg PUBLIC "-//W3C//DTD SVG 1.1//EN" "http://www.w3.org/Graphics/SVG/1.1/DTD/svg11.dtd">
<!-- Creator: CorelDRAW -->
<svg xmlns="http://www.w3.org/2000/svg" xml:space="preserve" width="32px" height="32px" version="1.1" style="shape-rendering:geometricPrecision; text-rendering:geometricPrecision; image-rendering:optimizeQuality; fill-rule:evenodd; clip-rule:evenodd"
viewBox="0 0 32 32"
 xmlns:xlink="http://www.w3.org/1999/xlink"
 xmlns:xodm="http://www.corel.com/coreldraw/odm/2003">
 <defs>
  <style type="text/css">
   <![CDATA[
    .fil0 {fill:#2D355E}
   ]]>
  </style>
 </defs>
 <g id="Camada_x0020_1">
  <metadata id="CorelCorpID_0Corel-Layer"/>
  <path class="fil0" d="M5.6 0l20.8 0c3.08,0 5.6,2.58 5.6,5.74l0 20.52c0,3.16 -2.52,5.74 -5.6,5.74l-20.8 0c-3.08,0 -5.6,-2.58 -5.6,-5.74l0 -20.52c0,-3.16 2.52,-5.74 5.6,-5.74zm2.81 10.95c-0.02,0.04 -0.03,0.08 -0.05,0.12 1.57,0.81 3.17,1.56 4.68,2.45 1.03,0.61 1.86,0.65 2.9,0.01 1.49,-0.92 3.1,-1.65 4.65,-2.47 -0.01,-0.04 -0.02,-0.07 -0.03,-0.11l-12.15 0zm-0.09 10.07c0.01,0.03 0.02,0.07 0.04,0.1l12.52 0c-2.12,-1.11 -4.08,-2.15 -6.04,-3.18 -0.29,-0.15 -0.53,-0.05 -0.79,0.08 -0.8,0.42 -1.62,0.83 -2.42,1.25 -1.11,0.58 -2.21,1.16 -3.31,1.75zm2.77 -5c-1.61,-0.84 -3.05,-1.61 -4.52,-2.33 -0.68,-0.32 -1.02,-0.72 -0.94,-1.51 0.07,-0.78 0,-1.57 0.02,-2.35 0.02,-1.27 0.67,-2.01 1.93,-2.21 0.27,-0.05 0.55,-0.06 0.83,-0.06 3.94,-0.01 7.88,-0.01 11.82,-0.01 1.3,0 2.43,0.28 2.84,1.74 0.12,0.42 0.41,0.28 0.66,0.14 0.92,-0.48 1.84,-0.95 2.75,-1.45 0.48,-0.26 0.63,-0.11 0.62,0.4 -0.01,0.7 -0.02,1.41 0.01,2.12 0.02,0.49 -0.16,0.78 -0.61,1.01 -2.57,1.34 -5.14,2.7 -7.7,4.07 -0.23,0.12 -0.64,0.16 -0.61,0.46 0.02,0.27 0.4,0.34 0.64,0.47 2.55,1.33 5.1,2.67 7.66,3.99 0.44,0.22 0.64,0.5 0.62,1 -0.03,0.71 -0.02,1.41 -0.01,2.12 0.01,0.55 -0.18,0.68 -0.68,0.41 -0.88,-0.49 -1.78,-0.94 -2.67,-1.43 -0.4,-0.22 -0.59,-0.2 -0.75,0.3 -0.32,1.02 -1,1.53 -2.09,1.53 -4.37,0.02 -8.74,0.02 -13.11,0 -1.37,-0.01 -2.13,-0.83 -2.15,-2.2 -0.02,-0.86 0.02,-1.72 -0.02,-2.58 -0.02,-0.56 0.19,-0.89 0.68,-1.13 1.31,-0.66 2.61,-1.35 3.9,-2.03 0.25,-0.12 0.49,-0.26 0.88,-0.47z"/>
 </g>
</svg>
