<?xml version="1.0" encoding="UTF-8"?>
<!DOCTYPE svg PUBLIC "-//W3C//DTD SVG 1.1//EN" "http://www.w3.org/Graphics/SVG/1.1/DTD/svg11.dtd">
<!-- Creator: CorelDRAW -->
<svg xmlns="http://www.w3.org/2000/svg" xml:space="preserve" width="32px" height="32px" version="1.1" style="shape-rendering:geometricPrecision; text-rendering:geometricPrecision; image-rendering:optimizeQuality; fill-rule:evenodd; clip-rule:evenodd"
viewBox="0 0 32 32"
 xmlns:xlink="http://www.w3.org/1999/xlink"
 xmlns:xodm="http://www.corel.com/coreldraw/odm/2003">
 <defs>
  <style type="text/css">
   <![CDATA[
    .fil0 {fill:#2D355E}
   ]]>
  </style>
 </defs>
 <g id="Camada_x0020_1">
  <metadata id="CorelCorpID_0Corel-Layer"/>
  <path class="fil0" d="M5.6 0l20.8 0c3.08,0 5.6,2.58 5.6,5.74l0 20.52c0,3.16 -2.52,5.74 -5.6,5.74l-20.8 0c-3.08,0 -5.6,-2.58 -5.6,-5.74l0 -20.52c0,-3.16 2.52,-5.74 5.6,-5.74zm5.7 16.34l3.36 0 -1.71 -5.65 -1.65 5.65zm9.87 -4.31c0,-0.34 0,-0.37 0.34,-0.37 0.74,0 1.94,-0.05 2.63,0.03l0.02 10.52c0,0.36 0.01,0.37 -0.35,0.37l-2.25 0c-0.3,0 -0.39,-0.05 -0.39,-0.37l0 -10.18zm-14.23 10.49c-0.54,0 -0.37,-0.23 -0.22,-0.66l0.92 -2.71c0.51,-1.52 3.09,-8.84 3.36,-9.94 0.08,-0.35 0.06,-0.8 0.07,-1.07 0.61,-0.04 3.18,-0.06 3.71,0.02 0.23,0.4 1.02,2.9 1.26,3.58l3.11 8.98c0.2,0.58 0.59,1.4 0.48,1.78 -0.65,0.04 -2.42,0.05 -3.03,-0.01l-0.87 -2.57c-0.1,-0.3 -0.17,-0.75 -0.35,-0.81l-4.89 0.01c-0.13,0.59 -0.38,1.26 -0.57,1.86 -0.6,1.92 -0.01,1.54 -2.98,1.54zm15.33 -15.37c2.29,-0.64 2.83,2.82 0.89,3.31 -2.28,0.57 -2.98,-2.73 -0.89,-3.31z"/>
 </g>
</svg>
