<?xml version="1.0" encoding="UTF-8"?>
<!DOCTYPE svg PUBLIC "-//W3C//DTD SVG 1.1//EN" "http://www.w3.org/Graphics/SVG/1.1/DTD/svg11.dtd">
<!-- Creator: CorelDRAW -->
<svg xmlns="http://www.w3.org/2000/svg" xml:space="preserve" width="32px" height="32px" version="1.1" style="shape-rendering:geometricPrecision; text-rendering:geometricPrecision; image-rendering:optimizeQuality; fill-rule:evenodd; clip-rule:evenodd"
viewBox="0 0 32 32"
 xmlns:xlink="http://www.w3.org/1999/xlink"
 xmlns:xodm="http://www.corel.com/coreldraw/odm/2003">
 <defs>
  <style type="text/css">
   <![CDATA[
    .fil0 {fill:#2D355E}
   ]]>
  </style>
 </defs>
 <g id="Camada_x0020_1">
  <metadata id="CorelCorpID_0Corel-Layer"/>
  <path class="fil0" d="M5.6 0l20.8 0c3.08,0 5.6,2.58 5.6,5.74l0 20.52c0,3.16 -2.52,5.74 -5.6,5.74l-20.8 0c-3.08,0 -5.6,-2.58 -5.6,-5.74l0 -20.52c0,-3.16 2.52,-5.74 5.6,-5.74zm12.02 18.23c0,-1.95 0.9,-3.11 2.62,-3.11 1.58,0 2.34,1.12 2.34,3.11 0,2 0,7.29 0,7.29l4.27 0c0,0 0,-5.07 0,-8.79 0,-3.72 -2.1,-5.51 -5.05,-5.51 -2.94,0 -4.18,2.29 -4.18,2.29l0 -1.87 -4.12 0 0 13.88 4.12 0c0,0 0,-5.15 0,-7.29zm-11.17 7.29l4.3 0 0 -13.88 -4.3 0 0 13.88zm2.13 -15.7c1.41,0 2.54,-1.15 2.54,-2.56 0,-1.41 -1.13,-2.56 -2.54,-2.56 -1.4,0 -2.54,1.15 -2.54,2.56 0,1.41 1.14,2.56 2.54,2.56z"/>
 </g>
</svg>
