<?xml version="1.0" encoding="UTF-8"?>
<!DOCTYPE svg PUBLIC "-//W3C//DTD SVG 1.1//EN" "http://www.w3.org/Graphics/SVG/1.1/DTD/svg11.dtd">
<!-- Creator: CorelDRAW -->
<svg xmlns="http://www.w3.org/2000/svg" xml:space="preserve" width="32px" height="32px" version="1.1" style="shape-rendering:geometricPrecision; text-rendering:geometricPrecision; image-rendering:optimizeQuality; fill-rule:evenodd; clip-rule:evenodd"
viewBox="0 0 32 32"
 xmlns:xlink="http://www.w3.org/1999/xlink"
 xmlns:xodm="http://www.corel.com/coreldraw/odm/2003">
 <defs>
  <style type="text/css">
   <![CDATA[
    .fil1 {fill:#E8E9DD}
    .fil0 {fill:#2D355E}
    .fil2 {fill:#E8E9DD}
   ]]>
  </style>
 </defs>
 <g id="Camada_x0020_1">
  <metadata id="CorelCorpID_0Corel-Layer"/>
  <g id="_2682988673872">
   <rect class="fil0" width="32" height="32" rx="1.88" ry="1.88"/>
   <path class="fil1" d="M3.2 14.93c0,-3.91 0,-7.82 0,-11.73 2.13,0 4.27,0 6.4,0 0,3.91 0,7.82 0,11.73 -2.13,0 -4.27,0 -6.4,0z"/>
   <path class="fil2" d="M3.2 18.13c4.27,0 8.53,0 12.8,0 0,3.56 0,7.11 0,10.67 -4.27,0 -8.53,0 -12.8,0 0,-3.56 0,-7.11 0,-10.67z"/>
   <polygon class="fil1" points="13.28,7.47 13.82,7.47 14.36,7.47 14.91,7.47 15.45,7.47 16,7.47 16,8.53 16,9.6 16,10.67 15.45,10.67 14.91,10.67 14.36,10.67 13.82,10.67 13.28,10.67 12.73,10.67 12.73,9.6 12.73,8.53 12.73,7.47 "/>
   <polygon class="fil1" points="13.33,12.8 13.87,12.8 14.4,12.8 14.93,12.8 15.46,12.8 16,12.8 16,13.51 16,14.22 16,14.93 15.46,14.93 14.93,14.93 14.4,14.93 13.87,14.93 13.33,14.93 12.8,14.93 12.8,14.22 12.8,13.51 12.8,12.8 "/>
   <polygon class="fil1" points="12.8,3.2 13.33,3.2 13.87,3.2 14.4,3.2 14.93,3.2 15.46,3.2 16,3.2 16,3.91 16,4.62 16,5.33 15.46,5.33 14.93,5.33 14.4,5.33 13.87,5.33 13.33,5.33 12.8,5.33 12.8,4.62 12.8,3.91 "/>
   <path class="fil1" d="M25.6 3.2c1.06,0 2.13,0 3.2,0 0,8.53 0,17.07 0,25.6 -1.07,0 -2.14,0 -3.2,0 0,-8.53 0,-17.07 0,-25.6z"/>
   <path class="fil1" d="M19.2 3.2c1.07,0 2.13,0 3.2,0 0,8.53 0,17.07 0,25.6 -1.07,0 -2.13,0 -3.2,0 0,-8.53 0,-17.07 0,-25.6z"/>
  </g>
 </g>
</svg>
