<?xml version="1.0" encoding="UTF-8"?><svg id="a" xmlns="http://www.w3.org/2000/svg" width="32" height="32" viewBox="0 0 32 32"><path d="m5.6,0h20.8c3.08,0,5.6,2.58,5.6,5.74v20.52c0,3.16-2.52,5.74-5.6,5.74H5.6c-3.08,0-5.6-2.58-5.6-5.74V5.74C0,2.58,2.52,0,5.6,0Zm2.81,10.95s-.03.08-.05.12c1.57.81,3.17,1.56,4.68,2.45,1.03.61,1.86.65,2.9.01,1.49-.92,3.1-1.65,4.65-2.47-.01-.04-.02-.07-.03-.11,0,0-12.15,0-12.15,0Zm-.09,10.07s.02.07.04.1h12.52c-2.12-1.11-4.08-2.15-6.04-3.18-.29-.15-.53-.05-.79.08-.8.42-1.62.83-2.42,1.25-1.11.58-2.21,1.16-3.31,1.75Zm2.77-5c-1.61-.84-3.05-1.61-4.52-2.33-.68-.32-1.02-.72-.94-1.51.07-.78,0-1.57.02-2.35.02-1.27.67-2.01,1.93-2.21.27-.05.55-.06.83-.06,3.94-.01,7.88-.01,11.82-.01,1.3,0,2.43.28,2.84,1.74.12.42.41.28.66.14.92-.48,1.84-.95,2.75-1.45.48-.26.63-.11.62.4-.01.7-.02,1.41.01,2.12.02.49-.16.78-.61,1.01-2.57,1.34-5.14,2.7-7.7,4.07-.23.12-.64.16-.61.46.02.27.4.34.64.47,2.55,1.33,5.1,2.67,7.66,3.99.44.22.64.5.62,1-.03.71-.02,1.41-.01,2.12.01.55-.18.68-.68.41-.88-.49-1.78-.94-2.67-1.43-.4-.22-.59-.2-.75.3-.32,1.02-1,1.53-2.09,1.53-4.37.02-8.74.02-13.11,0-1.37-.01-2.13-.83-2.15-2.2-.02-.86.02-1.72-.02-2.58-.02-.56.19-.89.68-1.13,1.31-.66,2.61-1.35,3.9-2.03.25-.12.49-.26.88-.47Z" fill="currentcolor"; fill-rule="evenodd"/></svg>
