<?xml version="1.0" encoding="UTF-8"?>
<!DOCTYPE svg PUBLIC "-//W3C//DTD SVG 1.1//EN" "http://www.w3.org/Graphics/SVG/1.1/DTD/svg11.dtd">
<!-- Creator: CorelDRAW -->
<svg xmlns="http://www.w3.org/2000/svg" xml:space="preserve" width="32px" height="32px" version="1.1" style="shape-rendering:geometricPrecision; text-rendering:geometricPrecision; image-rendering:optimizeQuality; fill-rule:evenodd; clip-rule:evenodd"
viewBox="0 0 32 32"
 xmlns:xlink="http://www.w3.org/1999/xlink"
 xmlns:xodm="http://www.corel.com/coreldraw/odm/2003">
 <defs>
  <style type="text/css">
   <![CDATA[
    .fil0 {fill:#2D355E}
   ]]>
  </style>
 </defs>
 <g id="Camada_x0020_1">
  <metadata id="CorelCorpID_0Corel-Layer"/>
  <path class="fil0" d="M10.26 0l21.74 0 0 21.74c0,5.64 -4.62,10.26 -10.26,10.26l-11.48 0c-5.64,0 -10.26,-4.62 -10.26,-10.26l0 -11.48c0,-5.64 4.62,-10.26 10.26,-10.26zm14.72 25.44c0.01,-0.34 0,-0.96 -0.11,-1.26 -0.08,-0.21 -0.22,-0.29 -0.49,-0.04 -0.26,0.25 -0.88,0.92 -1.15,1.15 -0.21,0.2 -0.09,0.4 -0.02,0.43 0.43,0.15 0.78,0.18 1.25,0.18 0.43,0.01 0.51,-0.11 0.52,-0.46zm-0.46 -2.32c0.23,-1.12 -0.18,-2.49 -0.95,-3.31 -2.51,-2.67 -13.42,-13.54 -13.86,-13.65 -1.18,-0.27 -3.89,3 -4.21,3.85 -0.03,0.92 0.86,1.51 1.35,2.01l11.67 11.59c0.36,0.34 0.58,0.68 0.99,1 0.68,0.52 2.03,0.66 2.81,0.61 0.1,-0.01 2.12,-1.96 2.2,-2.1z"/>
 </g>
</svg>
