<?xml version="1.0" encoding="UTF-8"?><svg id="coreldraw" xmlns="http://www.w3.org/2000/svg" width="32" height="32" viewBox="0 0 32 32"><g id="coreldraw"><path d="m10.26,0h21.74v21.74c0,5.64-4.62,10.26-10.26,10.26h-11.48c-5.64,0-10.26-4.62-10.26-10.26v-11.48C0,4.62,4.62,0,10.26,0Zm14.72,25.44c.01-.34,0-.96-.11-1.26-.08-.21-.22-.29-.49-.04-.26.25-.88.92-1.15,1.15-.21.2-.09.4-.02.43.43.15.78.18,1.25.18.43.01.51-.11.52-.46Zm-.46-2.32c.23-1.12-.18-2.49-.95-3.31-2.51-2.67-13.42-13.54-13.86-13.65-1.18-.27-3.89,3-4.21,3.85-.03.92.86,1.51,1.35,2.01l11.67,11.59c.36.34.58.68.99,1,.68.52,2.03.66,2.81.61.1-.01,2.12-1.96,2.2-2.1Z" fill="currentcolor" fill-rule="evenodd"/></g></svg>
