<?xml version="1.0" encoding="UTF-8"?><svg id="a" xmlns="http://www.w3.org/2000/svg" width="32" height="32" viewBox="0 0 32 32"><path d="m30.12,0H1.88C.84,0,0,.84,0,1.88v28.24c0,1.04.84,1.88,1.88,1.88h28.24c1.04,0,1.88-.84,1.88-1.88V1.88c0-1.04-.84-1.88-1.88-1.88ZM3.2,3.2h6.4v11.73H3.2V3.2Zm12.8,25.6H3.2v-10.67h12.8v10.67Zm0-15.29v1.42h-3.2v-2.13h3.2v.71Zm0-4.98v2.14h-3.27v-3.2h3.27v1.06Zm0-4.62v1.42h-3.2v-2.13h3.2v.71Zm6.4,24.89h-3.2V3.2h3.2v25.6Zm6.4,0h-3.2V3.2h3.2v25.6Z" fill="#FFFFFF" fill-rule="evenodd"/></svg>
