<?xml version="1.0" encoding="UTF-8"?><svg id="figma" xmlns="http://www.w3.org/2000/svg" width="32" height="32" viewBox="0 0 32 32"><g id="figma"><path d="m19.74,12.26h-3.74v3.74c0,2.06,1.67,3.74,3.74,3.74s3.74-1.68,3.74-3.74-1.68-3.74-3.74-3.74c2.06,0,3.74-1.67,3.74-3.74s-1.68-3.74-3.74-3.74h-7.48c-2.06,0-3.74,1.68-3.74,3.74s1.68,3.74,3.74,3.74c-2.06,0-3.74,1.68-3.74,3.74s1.68,3.74,3.74,3.74c-2.06,0-3.74,1.67-3.74,3.74s1.68,3.74,3.74,3.74h0c2.07,0,3.74-1.68,3.74-3.74v-7.48c0-2.06,1.67-3.74,3.74-3.74ZM5.6,0h20.8c3.08,0,5.6,2.58,5.6,5.74v20.52c0,3.16-2.52,5.74-5.6,5.74H5.6c-3.08,0-5.6-2.58-5.6-5.74V5.74C0,2.58,2.52,0,5.6,0Z" fill="currentcolor" fill-rule="evenodd"/></g></svg>
