<?xml version="1.0" encoding="UTF-8"?>
<!DOCTYPE svg PUBLIC "-//W3C//DTD SVG 1.1//EN" "http://www.w3.org/Graphics/SVG/1.1/DTD/svg11.dtd">
<!-- Creator: CorelDRAW -->
<svg xmlns="http://www.w3.org/2000/svg" xml:space="preserve" width="32px" height="32px" version="1.1" style="shape-rendering:geometricPrecision; text-rendering:geometricPrecision; image-rendering:optimizeQuality; fill-rule:evenodd; clip-rule:evenodd"
viewBox="0 0 32 32"
 xmlns:xlink="http://www.w3.org/1999/xlink"
 xmlns:xodm="http://www.corel.com/coreldraw/odm/2003">
 <defs>
  <style type="text/css">
   <![CDATA[
    .fil0 {fill:#2D355E}
   ]]>
  </style>
 </defs>
 <g id="Camada_x0020_1">
  <metadata id="CorelCorpID_0Corel-Layer"/>
  <path class="fil0" d="M19.74 12.26l-3.74 0 0 3.74c0,2.06 1.67,3.74 3.74,3.74 2.06,0 3.74,-1.68 3.74,-3.74 0,-2.06 -1.68,-3.74 -3.74,-3.74 2.06,0 3.74,-1.67 3.74,-3.74 0,-2.06 -1.68,-3.74 -3.74,-3.74l-7.48 0c-2.06,0 -3.74,1.68 -3.74,3.74 0,2.07 1.68,3.74 3.74,3.74 -2.06,0 -3.74,1.68 -3.74,3.74 0,2.06 1.68,3.74 3.74,3.74 -2.06,0 -3.74,1.67 -3.74,3.74 0,2.06 1.68,3.74 3.74,3.74l0 0c2.07,0 3.74,-1.68 3.74,-3.74l0 -3.74 0 -3.74c0,-2.06 1.67,-3.74 3.74,-3.74zm-14.14 -12.26l20.8 0c3.08,0 5.6,2.58 5.6,5.74l0 20.52c0,3.16 -2.52,5.74 -5.6,5.74l-20.8 0c-3.08,0 -5.6,-2.58 -5.6,-5.74l0 -20.52c0,-3.16 2.52,-5.74 5.6,-5.74z"/>
 </g>
</svg>
