<?xml version="1.0" encoding="UTF-8"?>
<!DOCTYPE svg PUBLIC "-//W3C//DTD SVG 1.1//EN" "http://www.w3.org/Graphics/SVG/1.1/DTD/svg11.dtd">
<!-- Creator: CorelDRAW -->
<svg xmlns="http://www.w3.org/2000/svg" xml:space="preserve" width="32px" height="32px" version="1.1" style="shape-rendering:geometricPrecision; text-rendering:geometricPrecision; image-rendering:optimizeQuality; fill-rule:evenodd; clip-rule:evenodd"
viewBox="0 0 32 32"
 xmlns:xlink="http://www.w3.org/1999/xlink"
 xmlns:xodm="http://www.corel.com/coreldraw/odm/2003">
 <defs>
  <style type="text/css">
   <![CDATA[
    .fil0 {fill:#2D355E}
   ]]>
  </style>
 </defs>
 <g id="Camada_x0020_1">
  <metadata id="CorelCorpID_0Corel-Layer"/>
  <path class="fil0" d="M5.6 0l20.8 0c3.08,0 5.6,2.58 5.6,5.74l0 20.52c0,3.16 -2.52,5.74 -5.6,5.74l-20.8 0c-3.08,0 -5.6,-2.58 -5.6,-5.74l0 -20.52c0,-3.16 2.52,-5.74 5.6,-5.74zm7.19 27.65c-0.01,-0.59 -0.01,-1.49 -0.01,-2.43 -4.02,0.74 -5.06,-0.98 -5.38,-1.88 -0.18,-0.46 -0.96,-1.88 -1.64,-2.26 -0.56,-0.3 -1.36,-1.05 -0.02,-1.07 1.26,-0.02 2.16,1.17 2.46,1.65 1.44,2.42 3.74,1.74 4.66,1.32 0.14,-1.04 0.56,-1.75 1.02,-2.14 -3.56,-0.4 -7.28,-1.78 -7.28,-7.91 0,-1.73 0.62,-3.17 1.64,-4.3 -0.16,-0.39 -0.72,-2.04 0.16,-4.24 0,0 1.34,-0.42 4.4,1.64 1.28,-0.36 2.64,-0.54 4,-0.54 1.36,0 2.72,0.18 4,0.54 3.06,-2.08 4.4,-1.64 4.4,-1.64 0.88,2.2 0.32,3.85 0.16,4.24 1.02,1.13 1.64,2.54 1.64,4.3 0,6.15 -3.74,7.51 -7.3,7.91 0.58,0.5 1.08,1.46 1.08,2.96 0,1.64 -0.02,3.04 -0.02,3.85l-7.97 0z"/>
 </g>
</svg>
