<?xml version="1.0" encoding="UTF-8"?><svg id="github" xmlns="http://www.w3.org/2000/svg" width="32" height="32" viewBox="0 0 32 32"><g id="github"><path d="m5.6,0h20.8c3.08,0,5.6,2.58,5.6,5.74v20.52c0,3.16-2.52,5.74-5.6,5.74H5.6c-3.08,0-5.6-2.58-5.6-5.74V5.74C0,2.58,2.52,0,5.6,0Zm7.19,27.65c-.01-.59-.01-1.49-.01-2.43-4.02.74-5.06-.98-5.38-1.88-.18-.46-.96-1.88-1.64-2.26-.56-.3-1.36-1.05-.02-1.07,1.26-.02,2.16,1.17,2.46,1.65,1.44,2.42,3.74,1.74,4.66,1.32.14-1.04.56-1.75,1.02-2.14-3.56-.4-7.28-1.78-7.28-7.91,0-1.73.62-3.17,1.64-4.3-.16-.39-.72-2.04.16-4.24,0,0,1.34-.42,4.4,1.64,1.28-.36,2.64-.54,4-.54s2.72.18,4,.54c3.06-2.08,4.4-1.64,4.4-1.64.88,2.2.32,3.85.16,4.24,1.02,1.13,1.64,2.54,1.64,4.3,0,6.15-3.74,7.51-7.3,7.91.58.5,1.08,1.46,1.08,2.96,0,1.64-.02,3.04-.02,3.85,0,0-7.97,0-7.97,0Z" fill="currentcolor" fill-rule="evenodd"/></g></svg>
