<?xml version="1.0" encoding="UTF-8"?><svg id="illustrator" xmlns="http://www.w3.org/2000/svg" width="32" height="32" viewBox="0 0 32 32"><g id="illustrator"><path d="m5.6,0h20.8c3.08,0,5.6,2.58,5.6,5.74v20.52c0,3.16-2.52,5.74-5.6,5.74H5.6c-3.08,0-5.6-2.58-5.6-5.74V5.74C0,2.58,2.52,0,5.6,0Zm5.7,16.34h3.36l-1.71-5.65-1.65,5.65Zm9.87-4.31c0-.34,0-.37.34-.37.74,0,1.94-.05,2.63.03l.02,10.52c0,.36.01.37-.35.37h-2.25c-.3,0-.39-.05-.39-.37,0,0,0-10.18,0-10.18Zm-14.23,10.49c-.54,0-.37-.23-.22-.66l.92-2.71c.51-1.52,3.09-8.84,3.36-9.94.08-.35.06-.8.07-1.07.61-.04,3.18-.06,3.71.02.23.4,1.02,2.9,1.26,3.58l3.11,8.98c.2.58.59,1.4.48,1.78-.65.04-2.42.05-3.03-.01l-.87-2.57c-.1-.3-.17-.75-.35-.81h-4.89c-.13.6-.38,1.27-.57,1.87-.6,1.92-.01,1.54-2.98,1.54Zm15.33-15.37c2.29-.64,2.83,2.82.89,3.31-2.28.57-2.98-2.73-.89-3.31Z" fill="currentcolor" fill-rule="evenodd"/></g></svg>
