<?xml version="1.0" encoding="UTF-8"?>
<!DOCTYPE svg PUBLIC "-//W3C//DTD SVG 1.1//EN" "http://www.w3.org/Graphics/SVG/1.1/DTD/svg11.dtd">
<!-- Creator: CorelDRAW -->
<svg xmlns="http://www.w3.org/2000/svg" xml:space="preserve" width="32px" height="32px" version="1.1" style="shape-rendering:geometricPrecision; text-rendering:geometricPrecision; image-rendering:optimizeQuality; fill-rule:evenodd; clip-rule:evenodd"
viewBox="0 0 32 32"
 xmlns:xlink="http://www.w3.org/1999/xlink"
 xmlns:xodm="http://www.corel.com/coreldraw/odm/2003">
 <defs>
  <style type="text/css">
   <![CDATA[
    .fil0 {fill:#2D355E}
   ]]>
  </style>
 </defs>
 <g id="Camada_x0020_1">
  <metadata id="CorelCorpID_0Corel-Layer"/>
  <path class="fil0" d="M5.6 0l20.8 0c3.08,0 5.6,2.58 5.6,5.74l0 20.52c0,3.16 -2.52,5.74 -5.6,5.74l-20.8 0c-3.08,0 -5.6,-2.58 -5.6,-5.74l0 -20.52c0,-3.16 2.52,-5.74 5.6,-5.74zm15.02 20.08l0.02 -6c-1.08,-0.46 -3.84,0.16 -3.88,2.94 -0.03,2.35 1.51,3.52 3.86,3.06zm-11.91 -11.87c0.13,-0.02 2.72,-0.08 2.88,0.03 -0.05,0.02 0.12,13.14 0,14.38 -0.43,0.05 -2.55,0.06 -2.91,-0.02 -0.04,-0.77 0.01,-14.19 0.03,-14.39zm11.93 3.25c0,-0.63 -0.08,-4.13 0.05,-4.42 0.4,-0.04 2.73,-0.05 2.84,0.02 0.19,0.17 0.08,1.48 0.08,1.77l0 11.2c0.01,0.49 0.12,1.43 0.05,1.84 -0.5,0.37 -1.99,0.7 -2.75,0.82 -1.13,0.16 -2.26,0.17 -3.34,-0.1 -4.37,-1.12 -4.85,-6.48 -2.35,-9.31 0.42,-0.49 1.32,-1.13 2.16,-1.44 1.06,-0.38 2.06,-0.44 3.26,-0.38z"/>
 </g>
</svg>
