<?xml version="1.0" encoding="UTF-8"?><svg id="indesign" xmlns="http://www.w3.org/2000/svg" width="32" height="32" viewBox="0 0 32 32"><g id="indesign"><path d="m5.6,0h20.8c3.08,0,5.6,2.58,5.6,5.74v20.52c0,3.16-2.52,5.74-5.6,5.74H5.6c-3.08,0-5.6-2.58-5.6-5.74V5.74C0,2.58,2.52,0,5.6,0Zm15.02,20.08l.02-6c-1.08-.46-3.84.16-3.88,2.94-.03,2.35,1.51,3.52,3.86,3.06Zm-11.91-11.87c.13-.02,2.72-.08,2.88.03-.05.02.12,13.14,0,14.38-.43.05-2.55.06-2.91-.02-.04-.77.01-14.19.03-14.39Zm11.93,3.25c0-.63-.08-4.13.05-4.42.4-.04,2.73-.05,2.84.02.19.17.08,1.48.08,1.77v11.2c.01.49.12,1.43.05,1.84-.5.37-1.99.7-2.75.82-1.13.16-2.26.17-3.34-.1-4.37-1.12-4.85-6.48-2.35-9.31.42-.49,1.32-1.13,2.16-1.44,1.06-.38,2.06-.44,3.26-.38Z" fill="currentcolor" fill-rule="evenodd"/></g></svg>
