<?xml version="1.0" encoding="UTF-8"?>
<!DOCTYPE svg PUBLIC "-//W3C//DTD SVG 1.1//EN" "http://www.w3.org/Graphics/SVG/1.1/DTD/svg11.dtd">
<!-- Creator: CorelDRAW -->
<svg xmlns="http://www.w3.org/2000/svg" xml:space="preserve" width="32px" height="32px" version="1.1" style="shape-rendering:geometricPrecision; text-rendering:geometricPrecision; image-rendering:optimizeQuality; fill-rule:evenodd; clip-rule:evenodd"
viewBox="0 0 32 32"
 xmlns:xlink="http://www.w3.org/1999/xlink"
 xmlns:xodm="http://www.corel.com/coreldraw/odm/2003">
 <defs>
  <style type="text/css">
   <![CDATA[
    .fil0 {fill:#2D355E}
   ]]>
  </style>
 </defs>
 <g id="Camada_x0020_1">
  <metadata id="CorelCorpID_0Corel-Layer"/>
  <path class="fil0" d="M5.6 0l20.8 0c3.08,0 5.6,2.58 5.6,5.74l0 20.52c0,3.16 -2.52,5.74 -5.6,5.74l-20.8 0c-3.08,0 -5.6,-2.58 -5.6,-5.74l0 -20.52c0,-3.16 2.52,-5.74 5.6,-5.74zm17.4 10.29c0,0.71 -0.58,1.28 -1.29,1.28 -0.71,0 -1.28,-0.57 -1.28,-1.28 0,-0.71 0.57,-1.29 1.28,-1.29 0.71,0 1.29,0.58 1.29,1.29zm-7 9.28c-1.97,0 -3.57,-1.6 -3.57,-3.57 0,-1.97 1.6,-3.57 3.57,-3.57 1.97,0 3.57,1.6 3.57,3.57 0,1.97 -1.6,3.57 -3.57,3.57zm0 -9.06c-3.03,0 -5.49,2.45 -5.49,5.49 0,3.03 2.46,5.49 5.49,5.49 3.04,0 5.5,-2.46 5.5,-5.49 0,-3.04 -2.46,-5.49 -5.5,-5.49zm0 -5.21c-2.9,0 -3.27,0.01 -4.41,0.06 -1.14,0.06 -1.92,0.24 -2.6,0.5 -0.7,0.27 -1.3,0.64 -1.89,1.24 -0.6,0.59 -0.97,1.19 -1.24,1.89 -0.26,0.68 -0.44,1.46 -0.5,2.6 -0.05,1.14 -0.06,1.5 -0.06,4.41 0,2.91 0.01,3.27 0.06,4.41 0.06,1.14 0.24,1.92 0.5,2.6 0.27,0.7 0.64,1.3 1.24,1.89 0.59,0.6 1.19,0.97 1.89,1.24 0.68,0.26 1.46,0.44 2.6,0.5 1.14,0.05 1.51,0.06 4.41,0.06 2.91,0 3.27,-0.01 4.41,-0.06 1.14,-0.06 1.92,-0.24 2.6,-0.5 0.7,-0.27 1.3,-0.64 1.9,-1.24 0.59,-0.59 0.96,-1.19 1.23,-1.89 0.26,-0.68 0.45,-1.46 0.5,-2.6 0.05,-1.14 0.06,-1.5 0.06,-4.41 0,-2.91 -0.01,-3.27 -0.06,-4.41 -0.05,-1.14 -0.24,-1.92 -0.5,-2.6 -0.27,-0.7 -0.64,-1.3 -1.23,-1.89 -0.6,-0.6 -1.2,-0.97 -1.9,-1.24 -0.68,-0.26 -1.46,-0.44 -2.6,-0.5 -1.14,-0.05 -1.5,-0.06 -4.41,-0.06zm0 1.93c2.86,0 3.2,0.01 4.32,0.06 1.05,0.05 1.62,0.22 1.99,0.37 0.5,0.19 0.86,0.42 1.23,0.8 0.38,0.37 0.61,0.73 0.8,1.23 0.15,0.38 0.32,0.94 0.37,1.99 0.05,1.12 0.06,1.46 0.06,4.32 0,2.86 -0.01,3.2 -0.06,4.33 -0.05,1.04 -0.22,1.6 -0.37,1.98 -0.19,0.5 -0.42,0.86 -0.8,1.23 -0.37,0.38 -0.73,0.61 -1.23,0.8 -0.37,0.15 -0.94,0.32 -1.99,0.37 -1.12,0.05 -1.46,0.06 -4.32,0.06 -2.86,0 -3.19,-0.01 -4.32,-0.06 -1.05,-0.05 -1.61,-0.22 -1.99,-0.37 -0.5,-0.19 -0.86,-0.42 -1.23,-0.8 -0.37,-0.37 -0.61,-0.73 -0.8,-1.23 -0.15,-0.38 -0.32,-0.94 -0.37,-1.98 -0.05,-1.13 -0.06,-1.47 -0.06,-4.33 0,-2.86 0.01,-3.2 0.06,-4.32 0.05,-1.05 0.22,-1.61 0.37,-1.99 0.19,-0.5 0.43,-0.86 0.8,-1.23 0.37,-0.38 0.73,-0.61 1.23,-0.8 0.38,-0.15 0.94,-0.32 1.99,-0.37 1.13,-0.05 1.46,-0.06 4.32,-0.06z"/>
 </g>
</svg>
