<?xml version="1.0" encoding="UTF-8"?><svg id="instagram" xmlns="http://www.w3.org/2000/svg" width="32" height="32" viewBox="0 0 32 32"><g id="instagram"><path d="m5.6,0h20.8c3.08,0,5.6,2.58,5.6,5.74v20.52c0,3.16-2.52,5.74-5.6,5.74H5.6c-3.08,0-5.6-2.58-5.6-5.74V5.74C0,2.58,2.52,0,5.6,0Zm17.4,10.29c0,.71-.58,1.28-1.29,1.28s-1.28-.57-1.28-1.28.57-1.29,1.28-1.29,1.29.58,1.29,1.29Zm-7,9.28c-1.97,0-3.57-1.6-3.57-3.57s1.6-3.57,3.57-3.57,3.57,1.6,3.57,3.57-1.6,3.57-3.57,3.57Zm0-9.06c-3.03,0-5.49,2.45-5.49,5.49s2.46,5.49,5.49,5.49,5.5-2.46,5.5-5.49-2.46-5.49-5.5-5.49Zm0-5.21c-2.9,0-3.27.01-4.41.06-1.14.06-1.92.24-2.6.5-.7.27-1.3.64-1.89,1.24-.6.59-.97,1.19-1.24,1.89-.26.68-.44,1.46-.5,2.6-.05,1.14-.06,1.5-.06,4.41s.01,3.27.06,4.41c.06,1.14.24,1.92.5,2.6.27.7.64,1.3,1.24,1.89.59.6,1.19.97,1.89,1.24.68.26,1.46.44,2.6.5,1.14.05,1.51.06,4.41.06s3.27-.01,4.41-.06c1.14-.06,1.92-.24,2.6-.5.7-.27,1.3-.64,1.9-1.24s.96-1.19,1.23-1.89c.26-.68.45-1.46.5-2.6s.06-1.5.06-4.41-.01-3.27-.06-4.41c-.05-1.14-.24-1.92-.5-2.6-.27-.7-.64-1.3-1.23-1.89-.6-.6-1.2-.97-1.9-1.24-.68-.26-1.46-.44-2.6-.5-1.14-.05-1.5-.06-4.41-.06Zm0,1.93c2.86,0,3.2.01,4.32.06,1.05.05,1.62.22,1.99.37.5.19.86.42,1.23.8.38.37.61.73.8,1.23.15.38.32.94.37,1.99.05,1.12.06,1.46.06,4.32s-.01,3.2-.06,4.33c-.05,1.04-.22,1.6-.37,1.98-.19.5-.42.86-.8,1.23-.37.38-.73.61-1.23.8-.37.15-.94.32-1.99.37-1.12.05-1.46.06-4.32.06s-3.19-.01-4.32-.06c-1.05-.05-1.61-.22-1.99-.37-.5-.19-.86-.42-1.23-.8-.37-.37-.61-.73-.8-1.23-.15-.38-.32-.94-.37-1.98-.05-1.13-.06-1.47-.06-4.33s.01-3.2.06-4.32c.05-1.05.22-1.61.37-1.99.19-.5.43-.86.8-1.23.37-.38.73-.61,1.23-.8.38-.15.94-.32,1.99-.37,1.13-.05,1.46-.06,4.32-.06Z" fill="currentcolor" fill-rule="evenodd"/></g></svg>
