<?xml version="1.0" encoding="UTF-8"?><svg id="linkedin" xmlns="http://www.w3.org/2000/svg" width="32" height="32" viewBox="0 0 32 32"><g id="linkedin"><path d="m5.6,0h20.8c3.08,0,5.6,2.58,5.6,5.74v20.52c0,3.16-2.52,5.74-5.6,5.74H5.6c-3.08,0-5.6-2.58-5.6-5.74V5.74C0,2.58,2.52,0,5.6,0Zm12.02,18.23c0-1.95.9-3.11,2.62-3.11,1.58,0,2.34,1.12,2.34,3.11v7.29h4.27v-8.79c0-3.72-2.1-5.51-5.05-5.51s-4.18,2.29-4.18,2.29v-1.87h-4.12v13.88h4.12s0-5.15,0-7.29Zm-11.17,7.29h4.3v-13.88h-4.3v13.88Zm2.13-15.7c1.41,0,2.54-1.15,2.54-2.56s-1.13-2.56-2.54-2.56-2.54,1.15-2.54,2.56,1.14,2.56,2.54,2.56Z" fill="cuurentcolor" fill-rule="evenodd"/></g></svg>
