<?xml version="1.0" encoding="UTF-8"?><svg id="mail" xmlns="http://www.w3.org/2000/svg" width="32" height="32" viewBox="0 0 32 32"><g id="mail"><path d="m5.6,0h20.8c3.08,0,5.6,2.58,5.6,5.74v20.52c0,3.16-2.52,5.74-5.6,5.74H5.6c-3.08,0-5.6-2.58-5.6-5.74V5.74C0,2.58,2.52,0,5.6,0Zm20.73,7.97c.57.54.89,1.29.89,2.08v11.9c0,.79-.32,1.54-.89,2.08,0,.01-.01.02-.02.03-.02.01-.04.03-.06.05-.53.47-1.21.74-1.93.74H7.68c-.72,0-1.4-.27-1.93-.74-.02-.02-.04-.04-.06-.05-.01-.01-.01-.02-.02-.03-.57-.54-.89-1.29-.89-2.08v-11.9c0-.79.32-1.54.89-2.08.01-.01.01-.02.02-.03.02-.01.04-.03.06-.05.53-.47,1.21-.74,1.93-.74h16.64c.72,0,1.4.27,1.93.74.02.02.04.04.06.05.01.01.02.02.02.03Zm-6.86,8.03l6.13,6.2c.02-.08.03-.17.03-.25v-11.9c0-.08-.01-.17-.03-.25,0,0-6.13,6.2-6.13,6.2Zm-11.86-7.25l6.61,6.68h0s1.22,1.24,1.22,1.24c.15.15.35.23.56.23s.41-.08.57-.23l1.21-1.23h.01s6.6-6.69,6.6-6.69H7.61Zm-1.21,13.45l6.13-6.2-6.13-6.2c-.02.08-.03.17-.03.25v11.9c0,.08.01.17.03.25Zm17.99,1.05l-6.04-6.12-.65.66c-.45.46-1.06.71-1.7.71s-1.25-.25-1.7-.71l-.65-.66-6.04,6.12h16.78Z" fill="currentcolor" fill-rule="evenodd"/></g></svg>
