<?xml version="1.0" encoding="UTF-8"?>
<!DOCTYPE svg PUBLIC "-//W3C//DTD SVG 1.1//EN" "http://www.w3.org/Graphics/SVG/1.1/DTD/svg11.dtd">
<!-- Creator: CorelDRAW -->
<svg xmlns="http://www.w3.org/2000/svg" xml:space="preserve" width="32px" height="32px" version="1.1" style="shape-rendering:geometricPrecision; text-rendering:geometricPrecision; image-rendering:optimizeQuality; fill-rule:evenodd; clip-rule:evenodd"
viewBox="0 0 32 32"
 xmlns:xlink="http://www.w3.org/1999/xlink"
 xmlns:xodm="http://www.corel.com/coreldraw/odm/2003">
 <defs>
  <style type="text/css">
   <![CDATA[
    .fil0 {fill:#2D355E}
   ]]>
  </style>
 </defs>
 <g id="Camada_x0020_1">
  <metadata id="CorelCorpID_0Corel-Layer"/>
  <path class="fil0" d="M5.6 0l20.8 0c3.08,0 5.6,2.58 5.6,5.74l0 20.52c0,3.16 -2.52,5.74 -5.6,5.74l-20.8 0c-3.08,0 -5.6,-2.58 -5.6,-5.74l0 -20.52c0,-3.16 2.52,-5.74 5.6,-5.74zm20.73 7.97c0.57,0.54 0.89,1.29 0.89,2.08l0 11.9c0,0.79 -0.32,1.54 -0.89,2.08 0,0.01 -0.01,0.02 -0.02,0.03 -0.02,0.01 -0.04,0.03 -0.06,0.05 -0.53,0.47 -1.21,0.74 -1.93,0.74l-16.64 0c-0.72,0 -1.4,-0.27 -1.93,-0.74 -0.02,-0.02 -0.04,-0.04 -0.06,-0.05 -0.01,-0.01 -0.01,-0.02 -0.02,-0.03 -0.57,-0.54 -0.89,-1.29 -0.89,-2.08l0 -11.9c0,-0.79 0.32,-1.54 0.89,-2.08 0.01,-0.01 0.01,-0.02 0.02,-0.03 0.02,-0.01 0.04,-0.03 0.06,-0.05 0.53,-0.47 1.21,-0.74 1.93,-0.74l16.64 0c0.72,0 1.4,0.27 1.93,0.74 0.02,0.02 0.04,0.04 0.06,0.05 0.01,0.01 0.02,0.02 0.02,0.03zm-6.86 8.03l6.13 6.2c0.02,-0.08 0.03,-0.17 0.03,-0.25l0 -11.9c0,-0.08 -0.01,-0.17 -0.03,-0.25l-6.13 6.2zm-11.86 -7.25l6.61 6.68c0,0 0,0 0,0 0,0.01 0,0.01 0,0.01l1.22 1.23c0.15,0.15 0.35,0.23 0.56,0.23 0.21,0 0.41,-0.08 0.57,-0.23l1.21 -1.23c0,0 0,0 0,-0.01 0.01,0 0.01,0 0.01,0l6.6 -6.68c-0.02,0 -0.04,0 -0.07,0l-16.64 0c-0.02,0 -0.05,0 -0.07,0zm-1.21 13.45l6.13 -6.2 -6.13 -6.2c-0.02,0.08 -0.03,0.17 -0.03,0.25l0 11.9c0,0.08 0.01,0.17 0.03,0.25zm17.99 1.05l-6.04 -6.12 -0.65 0.66c-0.45,0.46 -1.06,0.71 -1.7,0.71 -0.64,0 -1.25,-0.25 -1.7,-0.71l-0.65 -0.66 -6.04 6.12c0.02,0 0.05,0 0.07,0l16.64 0c0.03,0 0.05,0 0.07,0z"/>
 </g>
</svg>
