<?xml version="1.0" encoding="UTF-8"?><svg id="photoshop" xmlns="http://www.w3.org/2000/svg" width="32" height="32" viewBox="0 0 32 32"><g id="photoshop"><path d="m5.6,0h20.8c3.08,0,5.6,2.58,5.6,5.74v20.52c0,3.16-2.52,5.74-5.6,5.74H5.6c-3.08,0-5.6-2.58-5.6-5.74V5.74C0,2.58,2.52,0,5.6,0Zm4.51,15.46c2.07.1,4.23-.07,4.26-2.31.04-2.34-2.18-2.4-4.26-2.29v4.6Zm8.64,6.72c-.11-.32-.05-1.62-.05-2.06-.01-.99.24-.49.94-.2.84.34,2.49.7,3.44.35,1.61-.59-.62-1.61-1.23-1.85-1.01-.4-1.95-.93-2.46-1.57-1.81-2.3-.05-6.23,5.46-5.15.79.16,1.07.15,1.06.93,0,.48.05,1.63-.04,1.98-.17.02-1.17-.54-2.75-.62-1.31-.17-2.2.69-1.19,1.35,1.55,1.01,3.3,1.02,4.19,2.62,1.07,1.97-.3,3.91-1.71,4.51-1.22.51-4.8.62-5.66-.29Zm-11.53.41c-.07-2.91-.02-7.57-.02-10.46v-2.63c0-1.56-.24-1.25,1.3-1.29,1.52-.04,3.45-.18,4.89.12,5.03,1.08,5.01,7.42,1.26,9.13-1.95.82-3.74.57-4.55.6l-.02,4.51c-.24.09-2.42.04-2.86.02Z" fill="currentcolor" fill-rule="evenodd"/></g></svg>
