<?xml version="1.0" encoding="UTF-8"?>
<!DOCTYPE svg PUBLIC "-//W3C//DTD SVG 1.1//EN" "http://www.w3.org/Graphics/SVG/1.1/DTD/svg11.dtd">
<!-- Creator: CorelDRAW -->
<svg xmlns="http://www.w3.org/2000/svg" xml:space="preserve" width="32px" height="32px" version="1.1" style="shape-rendering:geometricPrecision; text-rendering:geometricPrecision; image-rendering:optimizeQuality; fill-rule:evenodd; clip-rule:evenodd"
viewBox="0 0 32 32"
 xmlns:xlink="http://www.w3.org/1999/xlink"
 xmlns:xodm="http://www.corel.com/coreldraw/odm/2003">
 <defs>
  <style type="text/css">
   <![CDATA[
    .fil0 {fill:#2D355E}
   ]]>
  </style>
 </defs>
 <g id="Camada_x0020_1">
  <metadata id="CorelCorpID_0Corel-Layer"/>
  <path class="fil0" d="M5.6 0l20.8 0c3.08,0 5.6,2.58 5.6,5.74l0 20.52c0,3.16 -2.52,5.74 -5.6,5.74l-20.8 0c-3.08,0 -5.6,-2.58 -5.6,-5.74l0 -20.52c0,-3.16 2.52,-5.74 5.6,-5.74zm4.51 15.46c2.07,0.1 4.23,-0.07 4.26,-2.31 0.04,-2.34 -2.18,-2.4 -4.26,-2.29l0 4.6zm8.64 6.72c-0.11,-0.32 -0.05,-1.62 -0.05,-2.06 -0.01,-0.99 0.24,-0.49 0.94,-0.2 0.84,0.34 2.49,0.7 3.44,0.35 1.61,-0.59 -0.62,-1.61 -1.23,-1.85 -1.01,-0.4 -1.95,-0.93 -2.46,-1.57 -1.81,-2.3 -0.05,-6.23 5.46,-5.15 0.79,0.16 1.07,0.15 1.06,0.93 0,0.48 0.05,1.63 -0.04,1.98 -0.17,0.02 -1.17,-0.54 -2.75,-0.62 -1.31,-0.17 -2.2,0.69 -1.19,1.35 1.55,1.01 3.3,1.02 4.19,2.62 1.07,1.97 -0.3,3.91 -1.71,4.51 -1.22,0.51 -4.8,0.62 -5.66,-0.29zm-11.53 0.41c-0.07,-2.91 -0.02,-7.57 -0.02,-10.46 0,-0.88 0,-1.75 0,-2.63 0,-1.56 -0.24,-1.25 1.3,-1.29 1.52,-0.04 3.45,-0.18 4.89,0.12 5.03,1.08 5.01,7.42 1.26,9.13 -1.95,0.82 -3.74,0.57 -4.55,0.6l-0.02 4.51c-0.24,0.09 -2.42,0.04 -2.86,0.02z"/>
 </g>
</svg>
